<svg width="301" height="71" viewBox="0 0 301 71" fill="none" xmlns="http://www.w3.org/2000/svg">
<g clip-path="url(#clip0_2188_148)">
<g clip-path="url(#clip1_2188_148)">
<path d="M17.627 30.2512L17.7121 30.1088L15.3957 28.4068L15.2984 28.5616C14.885 29.2238 14.3378 29.7313 13.6751 30.0779C13.0124 30.4245 12.2342 30.5978 11.3708 30.5978C10.6777 30.5978 10.0394 30.4616 9.46787 30.2017C8.89636 29.9355 8.39174 29.5642 7.97831 29.0938C7.5588 28.6235 7.23049 28.0479 6.99338 27.3856C6.75626 26.7234 6.63467 25.9869 6.63467 25.1947C6.63467 24.4025 6.75626 23.6846 6.99338 23.0285C7.23049 22.3663 7.56488 21.7907 7.99047 21.3142C8.41606 20.8376 8.92068 20.4539 9.49218 20.1815C10.0637 19.9092 10.696 19.7731 11.3769 19.7731C12.2159 19.7731 12.9698 19.9464 13.6204 20.293C14.2709 20.6334 14.806 21.147 15.2255 21.8093L15.3227 21.964L15.4687 21.8526L17.4872 20.3796L17.6209 20.2806L17.5297 20.1382C16.867 19.1232 16.0037 18.331 14.9701 17.7864C13.9365 17.2417 12.7449 16.9694 11.4195 16.9694C10.313 16.9694 9.27331 17.186 8.32486 17.6069C7.37641 18.0277 6.54347 18.6157 5.84429 19.346C5.14511 20.0763 4.58576 20.9614 4.19058 21.964C3.78931 22.9666 3.58867 24.0621 3.58867 25.2133C3.58867 26.3644 3.78323 27.4971 4.17234 28.4935C4.56145 29.4899 5.10255 30.3626 5.78957 31.0929C6.47659 31.817 7.30345 32.3926 8.2519 32.7949C9.20035 33.1972 10.2461 33.4014 11.3648 33.4014C12.7267 33.4014 13.973 33.1291 15.0552 32.5845C16.1435 32.0398 17.019 31.2538 17.6392 30.2512" fill="#272626"/>
<path d="M31.0573 33.0301V30.4554H25.0261V26.2902H30.425V23.7155H25.0261V19.9216H30.8506V17.3531H22.2355V33.0301H31.0573Z" fill="#272626"/>
<path d="M56.9878 19.9216V33.0301H59.9426V19.9216H63.9553V17.3469H52.9751V19.9216H56.9878Z" fill="#272626"/>
<path d="M76.273 33.0301H79.4041L76.2365 27.0514C78.2429 26.3397 79.5257 24.4953 79.5257 22.2982C79.5257 19.3398 77.3734 17.3531 74.1755 17.3531H68.1321V33.0301H70.9227V27.398H73.3425L76.2669 33.0301H76.273ZM76.6743 22.3601C76.6743 23.536 75.9812 24.7986 74.0356 24.7986H70.9227V19.9278H74.0356C75.9812 19.9278 76.6743 21.1842 76.6743 22.3601Z" fill="#272626"/>
<path d="M94.9685 33.0301H98.0752L91.8617 17.3531H89.144L82.9122 33.0301H85.9581L87.2592 29.5023H93.6613L94.9624 33.0301H94.9685ZM92.7007 26.9338H88.232L90.4694 20.8933L92.7068 26.9338H92.7007Z" fill="#272626"/>
<path d="M104.982 30.4554V17.3469H102.027V33.0301H112.041V30.4554H104.982Z" fill="#272626"/>
<path d="M45.9468 17.3531V28.1283L38.4261 17.3531H35.7023V33.0301H38.5538V22.2487L46.0745 33.0301H48.7983V17.3531H45.9468Z" fill="#272626"/>
<path d="M223.149 19.9216V33.0301H226.104V19.9216H230.117V17.3469H219.137V19.9216H223.149Z" fill="#B39555"/>
<path d="M236.513 19.9216V33.0301H239.468V19.9216H243.48V17.3469H232.5V19.9216H236.513Z" fill="#B39555"/>
<path d="M214.79 33.0301H217.896L211.683 17.3531H208.965L202.733 33.0301H205.779L207.08 29.5023H213.482L214.784 33.0301H214.79ZM212.516 26.9338H208.047L210.285 20.8933L212.522 26.9338H212.516Z" fill="#B39555"/>
<path d="M256.777 33.0301H259.884L253.67 17.3531H250.952L244.721 33.0301H247.767L249.068 29.5023H255.47L256.771 33.0301H256.777ZM254.509 26.9338H250.041L252.278 20.8933L254.515 26.9338H254.509Z" fill="#B39555"/>
<path d="M293.317 33.0301H296.423L290.21 17.3531H287.492L281.26 33.0301H284.306L285.607 29.5023H292.01L293.311 33.0301H293.317ZM291.049 26.9338H286.58L288.818 20.8933L291.055 26.9338H291.049Z" fill="#B39555"/>
<path d="M274.287 17.3531V28.1283L266.766 17.3531H264.036V33.0301H266.888V22.2487L274.408 33.0301H277.138V17.3531H274.287Z" fill="#B39555"/>
<path d="M196.508 17.3469H190.464V33.0239H193.255V27.3918H196.508C198.149 27.3918 199.523 26.8781 200.478 25.9126C201.365 25.009 201.858 23.7279 201.858 22.292C201.858 19.3336 199.706 17.3469 196.508 17.3469ZM193.255 19.9216H196.368C198.313 19.9216 199.006 21.178 199.006 22.3539C199.006 23.5298 198.313 24.7924 196.368 24.7924H193.255V19.9216Z" fill="#B39555"/>
<path d="M145.084 32.5288H140.968V43.0193H145.084V32.5288Z" fill="#272626"/>
<path d="M149.194 28.3511V28.314H145.084V32.5288H149.194V28.3511Z" fill="#272626"/>
<path d="M129.794 28.314L136.785 19.4946L140.95 14.24L140.968 28.314H145.084V8.91122V7.35776H141.12L133.204 17.3469L124.51 28.314V32.5288H126.432H127.064H140.968V28.314H129.794Z" fill="#272626"/>
<path d="M173.885 28.314C172.881 22.3725 167.738 17.8483 161.543 17.8483C159.19 17.8483 156.989 18.4981 155.11 19.6307L156.691 11.554H169.762V7.35776H153.317L152.496 11.554L150.441 22.0445L149.62 26.2407H149.729H154.186C155.651 23.7341 158.393 22.0445 161.536 22.0445C165.482 22.0445 168.802 24.7058 169.75 28.314H173.872V32.5288H177.988V28.314H173.879H173.885Z" fill="#272626"/>
<path d="M161.543 38.8231C157.585 38.8231 154.265 36.1494 153.323 32.5288H149.194C150.185 38.4827 155.341 43.0193 161.543 43.0193C167.744 43.0193 172.9 38.4827 173.891 32.5288H169.762C168.82 36.1494 165.501 38.8231 161.543 38.8231Z" fill="#272626"/>
<path d="M90.4937 59.3213L88.2867 55.6698H89.5635L91.0287 58.2878L92.5061 55.6698H93.7951L91.5942 59.3213V61.6546H90.4937V59.3213Z" fill="#272626"/>
<path d="M95.0901 55.6698H99.0055V56.66H96.148V58.1702H98.8109V59.1604H96.148V60.6458H99.0055V61.6608H95.0901V55.6698Z" fill="#272626"/>
<path d="M102.477 55.6698H103.267L105.614 61.6608H104.471L104.003 60.3611H101.754L101.279 61.6608H100.124L102.483 55.6698H102.477ZM103.669 59.4389L102.878 57.2542L102.082 59.4389H103.669Z" fill="#272626"/>
<path d="M106.976 55.6698H108.879C109.98 55.6698 110.916 56.3072 110.916 57.4337C110.916 58.1887 110.436 58.7581 109.767 58.9933L111.402 61.6608H110.192L108.745 59.0985H108.04V61.6608H106.982V55.6698H106.976ZM108.976 58.2197C109.536 58.1949 109.87 57.8978 109.87 57.446C109.87 56.9509 109.493 56.6291 108.885 56.6291H108.04V58.2197H108.97H108.976Z" fill="#272626"/>
<path d="M112.229 59.965L113.281 59.6927C113.354 60.4416 113.877 60.7696 114.503 60.7696C115.129 60.7696 115.476 60.4292 115.476 60.0083C115.476 58.7643 112.63 59.179 112.63 57.2294C112.63 56.1711 113.475 55.5769 114.466 55.5769C115.19 55.5769 115.853 55.8988 116.254 56.6291L115.378 57.1737C115.172 56.7652 114.825 56.5362 114.43 56.5362C114.017 56.5362 113.688 56.7962 113.688 57.1737C113.688 58.3001 116.534 57.9226 116.534 59.9093C116.534 61.0419 115.616 61.7227 114.491 61.7227C113.451 61.7227 112.424 61.1409 112.241 59.965H112.229Z" fill="#272626"/>
<path d="M120.2 58.6591C120.2 57.0252 121.093 55.5769 123.039 55.5769C124.985 55.5769 125.878 57.0252 125.878 58.6591C125.878 60.293 124.985 61.7413 123.039 61.7413C121.093 61.7413 120.2 60.293 120.2 58.6591ZM124.76 58.6591C124.76 57.5327 124.298 56.5362 123.033 56.5362C121.768 56.5362 121.306 57.5327 121.306 58.6591C121.306 59.7855 121.768 60.7881 123.033 60.7881C124.298 60.7881 124.76 59.7917 124.76 58.6591Z" fill="#272626"/>
<path d="M127.52 55.6698H131.691V56.66H128.578V58.1702H131.326V59.1604H128.578V61.6608H127.52V55.6698Z" fill="#272626"/>
<path d="M135.77 55.6698H137.813C138.707 55.6698 139.698 56.0844 139.698 57.2851C139.698 57.8298 139.376 58.2754 139.041 58.4549C139.576 58.6715 139.983 59.3213 139.983 59.9217C139.983 61.0357 139.065 61.6608 138.062 61.6608H135.77V55.6698ZM137.91 58.0773C138.324 58.0773 138.725 57.9288 138.725 57.3408C138.725 56.8766 138.336 56.6353 137.831 56.6353H136.834V58.0773H137.916H137.91ZM138.081 60.6334C138.628 60.6334 138.944 60.3673 138.944 59.8041C138.944 59.377 138.591 59.0119 138.038 59.0119H136.828V60.6334H138.081Z" fill="#272626"/>
<path d="M141.619 55.6698H145.534V56.66H142.677V58.1702H145.34V59.1604H142.677V60.6458H145.534V61.6608H141.619V55.6698Z" fill="#272626"/>
<path d="M148.629 56.6291H146.787V55.6698H151.529V56.6291H149.687V61.6546H148.629V56.6291Z" fill="#272626"/>
<path d="M154.259 56.6291H152.417V55.6698H157.159V56.6291H155.317V61.6546H154.259V56.6291Z" fill="#272626"/>
<path d="M158.545 55.6698H162.461V56.66H159.603V58.1702H162.266V59.1604H159.603V60.6458H162.461V61.6608H158.545V55.6698Z" fill="#272626"/>
<path d="M164.285 55.6698H166.188C167.288 55.6698 168.224 56.3072 168.224 57.4337C168.224 58.1887 167.744 58.7581 167.075 58.9933L168.711 61.6608H167.501L166.054 59.0985H165.349V61.6608H164.291V55.6698H164.285ZM166.285 58.2197C166.844 58.1949 167.179 57.8978 167.179 57.446C167.179 56.9509 166.802 56.6291 166.194 56.6291H165.349V58.2197H166.279H166.285Z" fill="#272626"/>
<path d="M172.644 55.6698H176.815V56.66H173.702V58.1702H176.45V59.1604H173.702V61.6608H172.644V55.6698Z" fill="#272626"/>
<path d="M178.177 59.3213V55.6698H179.229V59.1976C179.229 60.163 179.478 60.7015 180.426 60.7015C181.375 60.7015 181.624 60.163 181.624 59.1976V55.6698H182.682V59.278C182.682 60.7881 182.007 61.7413 180.433 61.7413C178.858 61.7413 178.183 60.7881 178.183 59.3213H178.177Z" fill="#272626"/>
<path d="M185.807 56.6291H183.965V55.6698H188.707V56.6291H186.865V61.6546H185.807V56.6291Z" fill="#272626"/>
<path d="M189.99 59.3213V55.6698H191.042V59.1976C191.042 60.163 191.291 60.7015 192.24 60.7015C193.188 60.7015 193.437 60.163 193.437 59.1976V55.6698H194.495V59.278C194.495 60.7881 193.82 61.7413 192.246 61.7413C190.671 61.7413 189.996 60.7881 189.996 59.3213H189.99Z" fill="#272626"/>
<path d="M196.423 55.6698H198.326C199.426 55.6698 200.362 56.3072 200.362 57.4337C200.362 58.1887 199.882 58.7581 199.213 58.9933L200.849 61.6608H199.639L198.192 59.0985H197.486V61.6608H196.429V55.6698H196.423ZM198.423 58.2197C198.982 58.1949 199.317 57.8978 199.317 57.446C199.317 56.9509 198.94 56.6291 198.332 56.6291H197.486V58.2197H198.417H198.423Z" fill="#272626"/>
<path d="M202.247 55.6698H206.162V56.66H203.305V58.1702H205.968V59.1604H203.305V60.6458H206.162V61.6608H202.247V55.6698Z" fill="#272626"/>
<path d="M207.415 59.965L208.467 59.6927C208.54 60.4416 209.062 60.7696 209.689 60.7696C210.315 60.7696 210.661 60.4292 210.661 60.0083C210.661 58.7643 207.816 59.179 207.816 57.2294C207.816 56.1711 208.661 55.5769 209.652 55.5769C210.376 55.5769 211.038 55.8988 211.44 56.6291L210.558 57.1737C210.351 56.7652 210.005 56.5362 209.61 56.5362C209.196 56.5362 208.868 56.7962 208.868 57.1737C208.868 58.3001 211.713 57.9226 211.713 59.9093C211.713 61.0419 210.795 61.7227 209.67 61.7227C208.631 61.7227 207.603 61.1409 207.421 59.965H207.415Z" fill="#272626"/>
</g>
</g>
<defs>
<clipPath id="clip0_2188_148">
<rect width="300" height="70" fill="white" transform="translate(0.220001 0.380001)"/>
</clipPath>
<clipPath id="clip1_2188_148">
<rect width="324" height="87" fill="white" transform="translate(-12 -9)"/>
</clipPath>
</defs>
</svg>
